<svg xmlns="http://www.w3.org/2000/svg" viewBox="0 0 512 512">
  <rect width="512" height="512" rx="112" fill="#155eef" />
  <circle cx="170" cy="170" r="54" fill="#dbe8ff" />
  <circle cx="340" cy="170" r="54" fill="#dbe8ff" />
  <path
    d="M116 316c0-35.3 28.7-64 64-64h152c35.3 0 64 28.7 64 64v24c0 26.5-21.5 48-48 48H164c-26.5 0-48-21.5-48-48v-24Z"
    fill="#fff"
  />
  <path
    d="M168 300h176v28c0 8.8-7.2 16-16 16H184c-8.8 0-16-7.2-16-16v-28Z"
    fill="#155eef"
  />
  <path
    d="M126 222h260c22.1 0 40 17.9 40 40v34c0 17.7-14.3 32-32 32H118c-17.7 0-32-14.3-32-32v-34c0-22.1 17.9-40 40-40Z"
    fill="#fff"
    opacity=".18"
  />
</svg>
